<svg xmlns="http://www.w3.org/2000/svg" viewBox="0 0 512 512" fill="none">
  <rect width="512" height="512" rx="96" fill="#1E293B"/>
  <path d="M256 96c-44.2 0-80 35.8-80 80v16c0 8.8 7.2 16 16 16h128c8.8 0 16-7.2 16-16v-16c0-44.2-35.8-80-80-80z" fill="#2563EB"/>
  <rect x="176" y="208" width="160" height="24" rx="12" fill="#2563EB"/>
  <rect x="192" y="248" width="128" height="24" rx="12" fill="#3B82F6"/>
  <path d="M216 288v96c0 17.7 14.3 32 32 32h16c17.7 0 32-14.3 32-32v-96" stroke="#2563EB" stroke-width="20" stroke-linecap="round"/>
  <circle cx="336" cy="336" r="48" fill="#2563EB" opacity="0.9"/>
  <path d="M320 336h32M336 320v32" stroke="white" stroke-width="6" stroke-linecap="round"/>
</svg>
